<svg xmlns="http://www.w3.org/2000/svg" viewBox="0 0 47.37 2.13"><title>dot-line</title><g id="レイヤー_2" data-name="レイヤー 2"><g id="レイヤー_1-2" data-name="レイヤー 1"><path d="M0,0H.09A1.06,1.06,0,0,1,.75.31,1,1,0,0,1,.88.47,1,1,0,0,1,1,.66,1,1,0,0,1,1,.86a1,1,0,0,1,0,.21,1,1,0,0,1,0,.21,1.05,1.05,0,0,1-.16.38,1,1,0,0,1-.13.16A1.06,1.06,0,0,1,0,2.12Z" fill="#dadada"/><path d="M4.74,2.13H4.64A1.06,1.06,0,0,1,4,1.81a1,1,0,0,1-.13-.16,1,1,0,0,1-.1-.18,1,1,0,0,1-.06-.2,1,1,0,0,1,0-.21,1,1,0,0,1,0-.21A1.05,1.05,0,0,1,3.85.47,1,1,0,0,1,4,.31,1.06,1.06,0,0,1,4.74,0Z" fill="#dadada"/><path d="M4.74,0h.09a1.06,1.06,0,0,1,.66.31,1,1,0,0,1,.13.16,1,1,0,0,1,.1.18,1,1,0,0,1,.06.2,1,1,0,0,1,0,.21,1,1,0,0,1,0,.21,1.05,1.05,0,0,1-.16.38,1,1,0,0,1-.13.16,1.06,1.06,0,0,1-.75.31Z" fill="#dadada"/><path d="M9.47,2.13H9.38a1.06,1.06,0,0,1-.66-.31,1,1,0,0,1-.13-.16,1,1,0,0,1-.1-.18,1,1,0,0,1-.06-.2,1,1,0,0,1,0-.21,1,1,0,0,1,0-.21A1.05,1.05,0,0,1,8.59.47,1,1,0,0,1,8.72.31,1.06,1.06,0,0,1,9.47,0Z" fill="#dadada"/><path d="M9.47,0h.09a1.06,1.06,0,0,1,.66.31,1,1,0,0,1,.13.16,1,1,0,0,1,.1.18,1,1,0,0,1,.06.2,1,1,0,0,1,0,.21,1,1,0,0,1,0,.21,1.05,1.05,0,0,1-.16.38,1,1,0,0,1-.13.16,1.06,1.06,0,0,1-.75.31Z" fill="#dadada"/><path d="M14.21,2.13h-.09a1.06,1.06,0,0,1-.66-.31,1,1,0,0,1-.13-.16,1,1,0,0,1-.1-.18,1,1,0,0,1-.06-.2,1,1,0,0,1,0-.21,1,1,0,0,1,0-.21,1.05,1.05,0,0,1,.16-.38,1,1,0,0,1,.13-.16A1.06,1.06,0,0,1,14.21,0Z" fill="#dadada"/><path d="M14.21,0h.09A1.06,1.06,0,0,1,15,.31a1,1,0,0,1,.13.16,1,1,0,0,1,.1.18,1,1,0,0,1,.06.2,1,1,0,0,1,0,.21,1,1,0,0,1,0,.21,1.05,1.05,0,0,1-.16.38,1,1,0,0,1-.13.16,1.06,1.06,0,0,1-.75.31Z" fill="#dadada"/><path d="M18.95,2.13h-.09a1.06,1.06,0,0,1-.66-.31,1,1,0,0,1-.13-.16,1,1,0,0,1-.1-.18,1,1,0,0,1-.06-.2,1,1,0,0,1,0-.21,1,1,0,0,1,0-.21,1.05,1.05,0,0,1,.16-.38A1,1,0,0,1,18.2.31,1.06,1.06,0,0,1,18.95,0Z" fill="#dadada"/><path d="M18.95,0H19a1.06,1.06,0,0,1,.66.31,1,1,0,0,1,.13.16,1,1,0,0,1,.1.18,1,1,0,0,1,.06.2,1,1,0,0,1,0,.21,1,1,0,0,1,0,.21,1.05,1.05,0,0,1-.16.38,1,1,0,0,1-.13.16,1.06,1.06,0,0,1-.75.31Z" fill="#dadada"/><path d="M23.68,2.13h-.09a1.06,1.06,0,0,1-.66-.31,1,1,0,0,1-.13-.16,1,1,0,0,1-.1-.18,1,1,0,0,1-.06-.2,1,1,0,0,1,0-.21,1,1,0,0,1,0-.21A1.05,1.05,0,0,1,22.8.47a1,1,0,0,1,.13-.16A1.06,1.06,0,0,1,23.68,0Z" fill="#dadada"/><path d="M23.68,0h.09a1.06,1.06,0,0,1,.66.31,1,1,0,0,1,.13.16,1,1,0,0,1,.1.18,1,1,0,0,1,.06.2,1,1,0,0,1,0,.21,1,1,0,0,1,0,.21,1.05,1.05,0,0,1-.16.38,1,1,0,0,1-.13.16,1.06,1.06,0,0,1-.75.31Z" fill="#dadada"/><path d="M28.42,2.13h-.09a1.06,1.06,0,0,1-.66-.31,1,1,0,0,1-.13-.16,1,1,0,0,1-.1-.18,1,1,0,0,1-.06-.2,1,1,0,0,1,0-.21,1,1,0,0,1,0-.21,1.05,1.05,0,0,1,.16-.38,1,1,0,0,1,.13-.16A1.06,1.06,0,0,1,28.42,0Z" fill="#dadada"/><path d="M28.42,0h.09a1.06,1.06,0,0,1,.66.31,1,1,0,0,1,.13.16,1,1,0,0,1,.1.18,1,1,0,0,1,.06.2,1,1,0,0,1,0,.21,1,1,0,0,1,0,.21,1.05,1.05,0,0,1-.16.38,1,1,0,0,1-.13.16,1.06,1.06,0,0,1-.75.31Z" fill="#dadada"/><path d="M33.16,2.13h-.09a1.06,1.06,0,0,1-.66-.31,1,1,0,0,1-.13-.16,1,1,0,0,1-.1-.18,1,1,0,0,1-.06-.2,1,1,0,0,1,0-.21,1,1,0,0,1,0-.21,1.05,1.05,0,0,1,.16-.38,1,1,0,0,1,.13-.16A1.06,1.06,0,0,1,33.16,0Z" fill="#dadada"/><path d="M33.16,0h.09a1.06,1.06,0,0,1,.66.31A1,1,0,0,1,34,.47a1,1,0,0,1,.1.18,1,1,0,0,1,.06.2,1,1,0,0,1,0,.21,1,1,0,0,1,0,.21,1.05,1.05,0,0,1-.16.38,1,1,0,0,1-.13.16,1.06,1.06,0,0,1-.75.31Z" fill="#dadada"/><path d="M37.9,2.13H37.8a1.06,1.06,0,0,1-.66-.31A1,1,0,0,1,37,1.65a1,1,0,0,1-.1-.18,1,1,0,0,1-.06-.2,1,1,0,0,1,0-.21,1,1,0,0,1,0-.21A1.05,1.05,0,0,1,37,.47a1,1,0,0,1,.13-.16A1.06,1.06,0,0,1,37.9,0Z" fill="#dadada"/><path d="M37.9,0H38a1.06,1.06,0,0,1,.66.31,1,1,0,0,1,.13.16,1,1,0,0,1,.1.18,1,1,0,0,1,.06.2,1,1,0,0,1,0,.21,1,1,0,0,1,0,.21,1.05,1.05,0,0,1-.16.38,1,1,0,0,1-.13.16,1.06,1.06,0,0,1-.75.31Z" fill="#dadada"/><path d="M42.63,2.13h-.09a1.06,1.06,0,0,1-.66-.31,1,1,0,0,1-.13-.16,1,1,0,0,1-.1-.18,1,1,0,0,1-.06-.2,1,1,0,0,1,0-.21,1,1,0,0,1,0-.21,1.05,1.05,0,0,1,.16-.38,1,1,0,0,1,.13-.16A1.06,1.06,0,0,1,42.63,0Z" fill="#dadada"/><path d="M42.63,0h.09a1.06,1.06,0,0,1,.66.31,1,1,0,0,1,.13.16,1,1,0,0,1,.1.18,1,1,0,0,1,.06.2,1,1,0,0,1,0,.21,1,1,0,0,1,0,.21,1.05,1.05,0,0,1-.16.38,1,1,0,0,1-.13.16,1.06,1.06,0,0,1-.75.31Z" fill="#dadada"/><path d="M47.37,2.13h-.09a1.06,1.06,0,0,1-.66-.31,1,1,0,0,1-.13-.16,1,1,0,0,1-.1-.18,1,1,0,0,1-.06-.2,1,1,0,0,1,0-.21,1,1,0,0,1,0-.21,1.05,1.05,0,0,1,.16-.38,1,1,0,0,1,.13-.16A1.06,1.06,0,0,1,47.37,0Z" fill="#dadada"/></g></g></svg>