<svg xmlns="http://www.w3.org/2000/svg" viewBox="0 0 35.11 38.73"><title>ico-match</title><g id="レイヤー_2" data-name="レイヤー 2"><g id="レイヤー_1-2" data-name="レイヤー 1"><path d="M25.56,0a8.06,8.06,0,0,1,5.87,2.07,7.6,7.6,0,0,1,2.12,5.71,9,9,0,0,1-1.76,5.07,14.31,14.31,0,0,1-2,2.43l-10.31,10a1.34,1.34,0,0,1-1.76,0l-10.31-10A12.48,12.48,0,0,1,5.43,13,9.22,9.22,0,0,1,3.56,7.78,7.6,7.6,0,0,1,5.68,2.07,8.06,8.06,0,0,1,11.55,0a7.84,7.84,0,0,1,4.08,1.32,16.08,16.08,0,0,1,2.92,2.26,16,16,0,0,1,2.92-2.26A7.84,7.84,0,0,1,25.56,0Z" fill="#d42678"/><text transform="translate(0 35.97)" font-size="9.29" fill="#d42678" font-family="GothamRounded-Bold, Gotham Rounded" font-weight="700">MATCH</text></g></g></svg>