<svg xmlns="http://www.w3.org/2000/svg" viewBox="0 0 30 25.59"><title>ico-heart</title><g id="レイヤー_2" data-name="レイヤー 2"><g id="レイヤー_1-2" data-name="レイヤー 1"><path d="M22,0a8.06,8.06,0,0,1,5.87,2.07A7.6,7.6,0,0,1,30,7.78a9,9,0,0,1-1.76,5.07,14.31,14.31,0,0,1-2,2.43l-10.31,10a1.34,1.34,0,0,1-1.76,0l-10.31-10A12.48,12.48,0,0,1,1.87,13,9.22,9.22,0,0,1,0,7.78,7.6,7.6,0,0,1,2.12,2.07,8.06,8.06,0,0,1,8,0a7.84,7.84,0,0,1,4.08,1.32A16.08,16.08,0,0,1,15,3.58a16,16,0,0,1,2.92-2.26A7.84,7.84,0,0,1,22,0Z" fill="#d42678"/></g></g></svg>