<svg xmlns="http://www.w3.org/2000/svg" viewBox="0 0 33.56 6.73"><title>ico-match-type</title><g id="レイヤー_2" data-name="レイヤー 2"><g id="レイヤー_1-2" data-name="レイヤー 1"><path d="M0,.79A.71.71,0,0,1,.72.07H.87a.74.74,0,0,1,.65.37L3.25,3.26,5,.44A.7.7,0,0,1,5.63.07h.16A.71.71,0,0,1,6.5.79V6A.71.71,0,1,1,5.08,6V2.71L3.83,4.65A.7.7,0,0,1,3.23,5a.7.7,0,0,1-.59-.36L1.4,2.74V6a.7.7,0,0,1-.71.7A.69.69,0,0,1,0,6Z" fill="#d42678"/><path d="M7.7,5.7,10,.58A.88.88,0,0,1,10.8,0h.08a.87.87,0,0,1,.83.57L14,5.7a.71.71,0,0,1,.07.29.68.68,0,0,1-.68.69.73.73,0,0,1-.69-.49l-.44-1H9.39L8.94,6.23a.7.7,0,0,1-.66.45A.66.66,0,0,1,7.62,6,.77.77,0,0,1,7.7,5.7Zm4-1.8-.9-2.15-.9,2.15Z" fill="#d42678"/><path d="M16.69,1.43H15.32a.66.66,0,1,1,0-1.32H19.5a.66.66,0,1,1,0,1.32H18.13V6a.72.72,0,0,1-1.43,0Z" fill="#d42678"/><path d="M20.91,3.38v0A3.31,3.31,0,0,1,24.3,0a3.44,3.44,0,0,1,2.17.66.72.72,0,0,1,.28.57.7.7,0,0,1-.71.7.75.75,0,0,1-.43-.14,2.14,2.14,0,0,0-1.33-.46,1.93,1.93,0,0,0-1.89,2v0a1.93,1.93,0,0,0,1.89,2,2.09,2.09,0,0,0,1.41-.51.66.66,0,1,1,.86,1,3.43,3.43,0,0,1-5.65-2.53Z" fill="#d42678"/><path d="M28.05.77a.72.72,0,0,1,1.43,0V2.69h2.64V.77a.72.72,0,0,1,1.43,0V6a.72.72,0,0,1-1.43,0V4H29.49V6a.72.72,0,0,1-1.43,0Z" fill="#d42678"/></g></g></svg>